<svg width="18" height="18" viewBox="0 0 18 18" fill="none" xmlns="http://www.w3.org/2000/svg">
<path d="M13.9846 14.604C12.8434 13.0979 11.0353 12.125 9 12.125C6.96467 12.125 5.15658 13.0979 4.01539 14.604M13.9846 14.604C15.5279 13.2303 16.5 11.2287 16.5 9C16.5 4.85786 13.1421 1.5 9 1.5C4.85786 1.5 1.5 4.85786 1.5 9C1.5 11.2287 2.47208 13.2303 4.01539 14.604M13.9846 14.604C12.6596 15.7834 10.9135 16.5 9 16.5C7.08653 16.5 5.34042 15.7834 4.01539 14.604M11.5 7.125C11.5 8.50571 10.3807 9.625 9 9.625C7.61929 9.625 6.5 8.50571 6.5 7.125C6.5 5.74429 7.61929 4.625 9 4.625C10.3807 4.625 11.5 5.74429 11.5 7.125Z" stroke="#667085" stroke-width="1.5" stroke-linecap="round" stroke-linejoin="round"/>
</svg>
