<svg width="14" height="23" viewBox="0 0 14 23" fill="none" xmlns="http://www.w3.org/2000/svg">
<path d="M6.06534 22.1818V0.363635H7.46307V22.1818H6.06534ZM10.4375 7.13068C10.3466 6.32386 9.97159 5.69886 9.3125 5.25568C8.65341 4.80682 7.82386 4.58239 6.82386 4.58239C6.10795 4.58239 5.48864 4.69602 4.96591 4.92329C4.44318 5.14489 4.03693 5.4517 3.74716 5.84375C3.46307 6.23011 3.32102 6.67045 3.32102 7.16477C3.32102 7.57955 3.41761 7.9375 3.6108 8.23864C3.80966 8.53977 4.06818 8.79261 4.38636 8.99716C4.71023 9.19602 5.05682 9.36364 5.42614 9.5C5.79545 9.63068 6.15057 9.73864 6.49148 9.82386L8.19602 10.267C8.75284 10.4034 9.32386 10.5881 9.90909 10.821C10.4943 11.054 11.0369 11.3608 11.5369 11.7415C12.0369 12.1222 12.4403 12.5938 12.7472 13.1562C13.0597 13.7188 13.2159 14.392 13.2159 15.1761C13.2159 16.1648 12.9602 17.0426 12.4489 17.8097C11.9432 18.5767 11.2074 19.1818 10.2415 19.625C9.28125 20.0682 8.11932 20.2898 6.75568 20.2898C5.44886 20.2898 4.31818 20.0824 3.36364 19.6676C2.40909 19.2528 1.66193 18.6648 1.12216 17.9034C0.582386 17.1364 0.284091 16.2273 0.227273 15.1761H2.86932C2.92045 15.8068 3.125 16.3324 3.48295 16.7528C3.84659 17.1676 4.30966 17.4773 4.87216 17.6818C5.44034 17.8807 6.0625 17.9801 6.73864 17.9801C7.48295 17.9801 8.14489 17.8636 8.72443 17.6307C9.30966 17.392 9.76989 17.0625 10.1051 16.642C10.4403 16.2159 10.608 15.7187 10.608 15.1506C10.608 14.6335 10.4602 14.2102 10.1648 13.8807C9.875 13.5511 9.48011 13.2784 8.98011 13.0625C8.4858 12.8466 7.92614 12.6562 7.30114 12.4915L5.23864 11.929C3.84091 11.5483 2.73295 10.9886 1.91477 10.25C1.10227 9.51136 0.696023 8.53409 0.696023 7.31818C0.696023 6.3125 0.96875 5.43466 1.5142 4.68466C2.05966 3.93466 2.7983 3.35227 3.73011 2.9375C4.66193 2.51705 5.71307 2.30682 6.88352 2.30682C8.06534 2.30682 9.10795 2.5142 10.0114 2.92898C10.9205 3.34375 11.6364 3.91477 12.1591 4.64204C12.6818 5.36364 12.9545 6.19318 12.9773 7.13068H10.4375Z" fill="#667085"/>
</svg>
