<svg width="15" height="19" viewBox="0 0 15 19" fill="none" xmlns="http://www.w3.org/2000/svg">
<path d="M12.6562 6.66477L11.8466 8.42045H0.639205L1.27841 6.66477H12.6562ZM11.1307 10.125L10.304 11.8977H0.639205L1.27841 10.125H11.1307ZM14.7358 2.03693L13.7301 4.19318C13.4119 3.92045 13.0653 3.6733 12.6903 3.4517C12.3153 3.23011 11.9119 3.05398 11.4801 2.92329C11.0483 2.78693 10.5852 2.71875 10.0909 2.71875C9.18182 2.71875 8.37216 2.96307 7.66193 3.4517C6.9517 3.94034 6.39205 4.67329 5.98295 5.65057C5.57955 6.62216 5.37784 7.83239 5.37784 9.28125C5.37784 10.7301 5.57955 11.9403 5.98295 12.9119C6.39205 13.8835 6.9517 14.6136 7.66193 15.1023C8.37216 15.5852 9.18182 15.8267 10.0909 15.8267C10.5909 15.8267 11.0568 15.7614 11.4886 15.6307C11.9261 15.5 12.3239 15.3295 12.6818 15.1193C13.0455 14.9034 13.3722 14.6761 13.6619 14.4375L14.6932 16.5852C14.0909 17.1307 13.392 17.5426 12.5966 17.821C11.8011 18.0994 10.9659 18.2386 10.0909 18.2386C8.66477 18.2386 7.40057 17.8778 6.2983 17.1562C5.2017 16.4347 4.34091 15.4062 3.71591 14.071C3.09091 12.7301 2.77841 11.1335 2.77841 9.28125C2.77841 7.4233 3.09091 5.82386 3.71591 4.48295C4.34091 3.14205 5.2017 2.1108 6.2983 1.3892C7.40057 0.667613 8.66477 0.306818 10.0909 0.306818C11 0.306818 11.8466 0.457386 12.6307 0.758522C13.4148 1.05398 14.1165 1.48011 14.7358 2.03693Z" fill="#667085"/>
</svg>
