<svg width="13" height="18" viewBox="0 0 13 18" fill="none" xmlns="http://www.w3.org/2000/svg">
<path d="M12.2091 18H0.277299V15.733H12.2091V18ZM8.62957 11.1648H0.21764V8.89773H8.62957V11.1648ZM4.49605 5.71023L4.76878 13.0653C4.80287 13.7983 4.70912 14.4545 4.48753 15.0341C4.26594 15.608 3.86537 16.0653 3.28582 16.4062L1.104 15.733C1.41082 15.7159 1.64662 15.5597 1.81139 15.2642C1.97616 14.9687 2.08696 14.6222 2.14378 14.2244C2.20059 13.821 2.22332 13.4574 2.21196 13.1335L1.9648 5.71023C1.91935 4.51705 2.14094 3.51989 2.62957 2.71875C3.12389 1.91761 3.78014 1.31534 4.59832 0.911931C5.4165 0.508522 6.29719 0.306818 7.24037 0.306818C8.08128 0.306818 8.83696 0.446022 9.50741 0.724431C10.1835 1.00284 10.7517 1.38352 11.212 1.86648C11.6779 2.34375 12.0103 2.8892 12.2091 3.50284C12.408 4.11648 12.4478 4.76136 12.3284 5.4375L9.86537 5.04545C9.92219 4.48864 9.83412 4.02557 9.60116 3.65625C9.36821 3.28693 9.04719 3.00852 8.6381 2.82102C8.229 2.63352 7.79435 2.53977 7.33412 2.53977C6.85116 2.53977 6.39094 2.65341 5.95344 2.88068C5.52162 3.10795 5.16934 3.45455 4.89662 3.92045C4.62957 4.38636 4.49605 4.98295 4.49605 5.71023Z" fill="#667085"/>
</svg>
