<svg width="12" height="18" viewBox="0 0 12 18" fill="none" xmlns="http://www.w3.org/2000/svg">
<path d="M11.8449 4.73864L11.2483 6.84375H0.0749734L0.671564 4.73864H11.8449ZM6.40736 18L0.305087 10.5938L0.288042 8.93182H3.31361C4.06929 8.93182 4.7085 8.81534 5.23122 8.58239C5.75395 8.34943 6.15168 8.01136 6.42441 7.56818C6.69713 7.11932 6.8335 6.57386 6.8335 5.93182C6.8335 4.97727 6.54941 4.21875 5.98122 3.65625C5.41304 3.09375 4.52384 2.8125 3.31361 2.8125H0.0749734L0.697132 0.545454H3.31361C4.7227 0.545454 5.88463 0.769886 6.79941 1.21875C7.71418 1.66761 8.396 2.28977 8.84486 3.08523C9.29372 3.88068 9.51816 4.79829 9.51816 5.83807C9.51816 6.7642 9.3335 7.60227 8.96418 8.35227C8.59486 9.10227 8.00679 9.71307 7.19997 10.1847C6.39316 10.6562 5.3335 10.9318 4.021 11.0114L3.94429 11.0284L9.51816 17.8551V18H6.40736ZM11.8534 0.545454L11.2483 2.66761L2.31645 2.61648L2.92156 0.545454H11.8534Z" fill="#667085"/>
</svg>
