<svg width="18" height="18" viewBox="0 0 18 18" fill="none" xmlns="http://www.w3.org/2000/svg">
<path fill-rule="evenodd" clip-rule="evenodd" d="M1 3.25C1 2.00736 2.00736 1 3.25 1H8.75C9.99264 1 11 2.00736 11 3.25V5.25C11 5.66421 10.6642 6 10.25 6C9.83579 6 9.5 5.66421 9.5 5.25V3.25C9.5 2.83579 9.16421 2.5 8.75 2.5H3.25C2.83579 2.5 2.5 2.83579 2.5 3.25V14.75C2.5 15.1642 2.83579 15.5 3.25 15.5H8.75C9.16421 15.5 9.5 15.1642 9.5 14.75V12.75C9.5 12.3358 9.83579 12 10.25 12C10.6642 12 11 12.3358 11 12.75V14.75C11 15.9926 9.99264 17 8.75 17H3.25C2.00736 17 1 15.9926 1 14.75V3.25Z" fill="#E72929"/>
<path fill-rule="evenodd" clip-rule="evenodd" d="M4 9C4 8.58579 4.33579 8.25 4.75 8.25H14.2955L13.2483 7.30747C12.9404 7.03038 12.9154 6.55616 13.1925 6.24828C13.4696 5.94039 13.9438 5.91543 14.2517 6.19253L16.7517 8.44253C16.9098 8.58476 17 8.78738 17 9C17 9.21261 16.9098 9.41524 16.7517 9.55747L14.2517 11.8075C13.9438 12.0846 13.4696 12.0596 13.1925 11.7517C12.9154 11.4438 12.9404 10.9696 13.2483 10.6925L14.2955 9.75H4.75C4.33579 9.75 4 9.41421 4 9Z" fill="#E72929"/>
<path fill-rule="evenodd" clip-rule="evenodd" d="M1 3.25C1 2.00736 2.00736 1 3.25 1H8.75C9.99264 1 11 2.00736 11 3.25V5.25C11 5.66421 10.6642 6 10.25 6C9.83579 6 9.5 5.66421 9.5 5.25V3.25C9.5 2.83579 9.16421 2.5 8.75 2.5H3.25C2.83579 2.5 2.5 2.83579 2.5 3.25V14.75C2.5 15.1642 2.83579 15.5 3.25 15.5H8.75C9.16421 15.5 9.5 15.1642 9.5 14.75V12.75C9.5 12.3358 9.83579 12 10.25 12C10.6642 12 11 12.3358 11 12.75V14.75C11 15.9926 9.99264 17 8.75 17H3.25C2.00736 17 1 15.9926 1 14.75V3.25Z" stroke="#E72929" stroke-width="0.5" stroke-linecap="round" stroke-linejoin="round"/>
<path fill-rule="evenodd" clip-rule="evenodd" d="M4 9C4 8.58579 4.33579 8.25 4.75 8.25H14.2955L13.2483 7.30747C12.9404 7.03038 12.9154 6.55616 13.1925 6.24828C13.4696 5.94039 13.9438 5.91543 14.2517 6.19253L16.7517 8.44253C16.9098 8.58476 17 8.78738 17 9C17 9.21261 16.9098 9.41524 16.7517 9.55747L14.2517 11.8075C13.9438 12.0846 13.4696 12.0596 13.1925 11.7517C12.9154 11.4438 12.9404 10.9696 13.2483 10.6925L14.2955 9.75H4.75C4.33579 9.75 4 9.41421 4 9Z" stroke="#E72929" stroke-width="0.5" stroke-linecap="round" stroke-linejoin="round"/>
</svg>
