<svg width="18" height="18" viewBox="0 0 18 18" fill="none" xmlns="http://www.w3.org/2000/svg">
<path d="M1.5 9.9375C1.5 9.41973 1.91973 9 2.4375 9H4.3125C4.83027 9 5.25 9.41973 5.25 9.9375V15.5625C5.25 16.0803 4.83027 16.5 4.3125 16.5H2.4375C1.91973 16.5 1.5 16.0803 1.5 15.5625V9.9375Z" stroke="#667085" stroke-width="1.5" stroke-linecap="round" stroke-linejoin="round"/>
<path d="M7.125 6.1875C7.125 5.66973 7.54473 5.25 8.0625 5.25H9.9375C10.4553 5.25 10.875 5.66973 10.875 6.1875V15.5625C10.875 16.0803 10.4553 16.5 9.9375 16.5H8.0625C7.54473 16.5 7.125 16.0803 7.125 15.5625V6.1875Z" stroke="#667085" stroke-width="1.5" stroke-linecap="round" stroke-linejoin="round"/>
<path d="M12.75 2.4375C12.75 1.91973 13.1697 1.5 13.6875 1.5H15.5625C16.0803 1.5 16.5 1.91973 16.5 2.4375V15.5625C16.5 16.0803 16.0803 16.5 15.5625 16.5H13.6875C13.1697 16.5 12.75 16.0803 12.75 15.5625V2.4375Z" stroke="#667085" stroke-width="1.5" stroke-linecap="round" stroke-linejoin="round"/>
</svg>
