<svg width="18" height="18" viewBox="0 0 18 18" fill="none" xmlns="http://www.w3.org/2000/svg">
<path d="M9 4V14M6.5 11.6515L7.23239 12.2008C8.20867 12.9331 9.79152 12.9331 10.7678 12.2008C11.7441 11.4686 11.7441 10.2814 10.7678 9.54917C10.2796 9.18302 9.63975 8.99996 8.99991 9C8.3958 9.00004 7.79183 8.817 7.33091 8.45085C6.40916 7.71861 6.40916 6.53143 7.33091 5.7992C8.25266 5.06696 9.74711 5.06696 10.6689 5.7992L11.0146 6.07386M16.5 9C16.5 13.1421 13.1421 16.5 9 16.5C4.85786 16.5 1.5 13.1421 1.5 9C1.5 4.85786 4.85786 1.5 9 1.5C13.1421 1.5 16.5 4.85786 16.5 9Z" stroke="#667085" stroke-width="1.5" stroke-linecap="round" stroke-linejoin="round"/>
</svg>
